# xmcd
#
# Track frame offsets: 
#        150
#        16412
#        31312
#        46060
#        61152
#        77794
#        95236
#        111806
#        130694
#        145895
#        163177
#        177436
#
# Disc length: 2600 seconds
#
# Revision: 1
# Processed by: cddbd v1.5.2PL0 Copyright (c) Steve Scherf et al.
# Submitted via: ExactAudioCopy v1.0b3
#
DISCID=9d0a260c
DTITLE=Miri Mesika - Melech
DYEAR=2012
DGENRE=Other
TTITLE0=Iriot Ba'Avir
TTITLE1=Melech
TTITLE2=Ve'Uley
TTITLE3=Ha'Drachim Ha'Chadashot
TTITLE4=Al Tedaber Elay
TTITLE5=Noga'at Be'Einach Shuv
TTITLE6=Ani Lo Sham
TTITLE7=Isha Charsina
TTITLE8=Lirkot Levad
TTITLE9=Lo Kmu Kolam
TTITLE10=Le'Ehov Mechadash
TTITLE11=Vinsent
EXTD=
EXTT0=
EXTT1=
EXTT2=
EXTT3=
EXTT4=
EXTT5=
EXTT6=
EXTT7=
EXTT8=
EXTT9=
EXTT10=
EXTT11=
PLAYORDER=
